<svg xmlns="http://www.w3.org/2000/svg" viewBox="0 0 192 192" role="img" aria-label="Innerbloom">
  <defs>
    <linearGradient id="g" x1="25" y1="20" x2="165" y2="172" gradientUnits="userSpaceOnUse">
      <stop stop-color="#b88cff"/>
      <stop offset="1" stop-color="#8d5cf6"/>
    </linearGradient>
  </defs>
  <g fill="url(#g)">
    <path d="M96 18C72 43 61 69 64 99c2 23 14 43 32 63 18-20 30-40 32-63 3-30-8-56-32-81Z"/>
    <path d="M37 48c2 35 10 64 27 86 8 10 18 18 30 25-9-23-13-45-10-66 2-14 7-27 14-39-18-11-38-17-61-20Z"/>
    <path d="M155 48c-2 35-10 64-27 86-8 10-18 18-30 25 9-23 13-45 10-66-2-14-7-27-14-39 18-11 38-17 61-20Z"/>
    <path d="M22 98c9 31 27 55 53 69 9 5 19 7 30 7-20-15-35-31-45-49-7-12-12-25-15-39-8 1-16 5-23 12Z"/>
    <path d="M170 98c-9 31-27 55-53 69-9 5-19 7-30 7 20-15 35-31 45-49 7-12 12-25 15-39 8 1 16 5 23 12Z"/>
  </g>
</svg>
